<?xml version="1.0" encoding="UTF-8"?>
<svg version="1.1" xmlns="http://www.w3.org/2000/svg" width="150" height="149">
<path d="M0 0 C0.72960938 -0.02835938 1.45921875 -0.05671875 2.2109375 -0.0859375 C9.17629457 1.24401741 14.48534055 7.88171807 19.3046875 12.6484375 C20.11745148 13.44980133 20.93021545 14.25116516 21.76760864 15.07681274 C23.47644196 16.76681775 25.18243459 18.45969936 26.88574219 20.15527344 C29.49835932 22.74837158 32.13152207 25.31937911 34.765625 27.890625 C36.42579177 29.53774055 38.08469075 31.18613513 39.7421875 32.8359375 C40.53269501 33.6017514 41.32320251 34.36756531 42.13766479 35.15658569 C42.85906647 35.88398956 43.58046814 36.61139343 44.32373047 37.36083984 C44.96293427 37.99275238 45.60213806 38.62466492 46.26071167 39.27572632 C48.14743394 42.17888565 48.10565164 43.97587757 47.625 47.375 C46.17132568 49.56365967 46.17132568 49.56365967 44.10839844 51.60449219 C43.34049988 52.37839294 42.57260132 53.1522937 41.78143311 53.949646 C40.94090393 54.76548157 40.10037476 55.58131714 39.234375 56.421875 C38.37821594 57.27428772 37.52205688 58.12670044 36.63995361 59.00494385 C34.82765158 60.80380524 33.00817027 62.59545824 31.18212891 64.38037109 C28.38572405 67.11451472 25.61118168 69.86938009 22.83984375 72.62890625 C21.07675929 74.3736482 19.31247572 76.11717944 17.546875 77.859375 C16.71444275 78.6833075 15.8820105 79.50723999 15.02435303 80.35614014 C14.24384583 81.11743225 13.46333862 81.87872437 12.65917969 82.66308594 C11.97523132 83.3333783 11.29128296 84.00367065 10.58660889 84.6942749 C7.30855739 87.50294051 4.5562329 88.67445205 0.25 88.75 C-0.47960938 88.77835937 -1.20921875 88.80671875 -1.9609375 88.8359375 C-8.64085822 87.56048338 -13.70161476 81.38435973 -18.328125 76.79296875 C-19.44027374 75.69436272 -19.44027374 75.69436272 -20.57489014 74.57356262 C-22.13400992 73.02889739 -23.69037884 71.48145116 -25.24414062 69.93139648 C-27.61914179 67.56832878 -30.01216792 65.22457334 -32.40625 62.88085938 C-33.92302164 61.37354879 -35.438685 59.86512198 -36.953125 58.35546875 C-37.6676886 57.66043747 -38.3822522 56.96540619 -39.11846924 56.24931335 C-43.06170119 52.26983471 -45.77588622 49.17692191 -46.375 43.375 C-44.57654058 37.44052945 -39.8730303 33.45597248 -35.56640625 29.203125 C-34.80327621 28.43949646 -34.04014618 27.67586792 -33.25389099 26.88909912 C-31.64445379 25.28199573 -30.03133876 23.6785681 -28.41479492 22.07861328 C-25.94076935 19.62823809 -23.48039019 17.16475631 -21.02148438 14.69921875 C-19.45391649 13.13722612 -17.88558291 11.57600145 -16.31640625 10.015625 C-15.58088028 9.27918762 -14.84535431 8.54275024 -14.08753967 7.78399658 C-13.39679855 7.10278748 -12.70605743 6.42157837 -11.99438477 5.71972656 C-11.39054459 5.12049377 -10.78670441 4.52126099 -10.16456604 3.90386963 C-6.96934175 1.1741121 -4.18449969 0.07341228 0 0 Z M-3.24243164 16.12890625 C-4.50924113 17.39587507 -5.7732788 18.66561889 -7.03515625 19.9375 C-7.69962265 20.60338135 -8.36408905 21.2692627 -9.0486908 21.95532227 C-11.18064012 24.092891 -13.30909549 26.23390218 -15.4375 28.375 C-16.87802723 29.82053973 -18.31877944 31.26585528 -19.75976562 32.7109375 C-23.30079773 36.26302435 -26.83869901 39.81820328 -30.375 43.375 C-29.09477125 46.18469467 -27.76785871 48.2289238 -25.57763672 50.39941406 C-25.01720673 50.95969299 -24.45677673 51.51997192 -23.87936401 52.097229 C-22.97614914 52.98496002 -22.97614914 52.98496002 -22.0546875 53.890625 C-21.43602814 54.50645447 -20.81736877 55.12228394 -20.17996216 55.7567749 C-18.20796186 57.71760336 -16.22911263 59.67135301 -14.25 61.625 C-12.90969836 62.95526799 -11.56984917 64.285992 -10.23046875 65.6171875 C-6.95053411 68.8751015 -3.66444058 72.12668533 -0.375 75.375 C4.12954825 71.60375755 8.42693876 67.7143403 12.55859375 63.5390625 C13.0813942 63.01484711 13.60419464 62.49063171 14.14283752 61.95053101 C15.78512345 60.3027213 17.4238665 58.65144099 19.0625 57 C20.18661467 55.87086045 21.31096174 54.74195222 22.43554688 53.61328125 C25.16805235 50.86984812 27.89739009 48.12330015 30.625 45.375 C29.34675998 42.57303781 28.02158209 40.52232736 25.84350586 38.35058594 C25.28630356 37.79030701 24.72910126 37.23002808 24.15501404 36.652771 C23.55600784 36.06095032 22.95700165 35.46912964 22.33984375 34.859375 C21.72355606 34.24354553 21.10726837 33.62771606 20.4723053 32.9932251 C19.17262353 31.69655812 17.87051846 30.40231613 16.56616211 29.11035156 C14.56107781 27.12359081 12.56417806 25.12887665 10.56835938 23.1328125 C9.30515976 21.87452572 8.0415037 20.61669696 6.77734375 19.359375 C5.87579811 18.4594986 5.87579811 18.4594986 4.95603943 17.54144287 C1.06012382 12.78436268 1.06012382 12.78436268 -3.24243164 16.12890625 Z " fill="#1A5DFC" transform="translate(61.375,26.625)"/>
<path d="M0 0 C2.67009837 -0.19115477 5.32628503 -0.32850496 8 -0.4375 C8.74378906 -0.49615234 9.48757812 -0.55480469 10.25390625 -0.61523438 C14.873923 -0.75584358 17.37179875 -0.09528228 20.79711914 3.07568359 C21.48991974 3.71161942 22.18272034 4.34755524 22.89651489 5.00276184 C23.59066498 5.66185043 24.28481506 6.32093903 25 7 C25.63783417 7.60192673 26.27566833 8.20385345 26.93283081 8.82402039 C31.07957828 12.78701572 35.14789195 16.83137312 39.22045898 20.87036133 C40.70572818 22.33894762 42.19635862 23.80213037 43.69213867 25.26000977 C45.86817156 27.38138638 48.0273893 29.51865101 50.18359375 31.66015625 C50.85329697 32.30719009 51.52300018 32.95422394 52.21299744 33.62086487 C55.80664916 37.23117663 57.96957 39.64336967 58 45 C56.12964329 51.70667657 51.85401755 55.68617049 46.9375 60.4375 C46.20466797 61.16904297 45.47183594 61.90058594 44.71679688 62.65429688 C39.28125 68 39.28125 68 37 68 C36.74734375 68.59167969 36.4946875 69.18335937 36.234375 69.79296875 C34.85451102 72.26013061 33.43638893 73.53711829 31.25 75.3125 C27.88949786 78.14239654 25.0627663 81.09046168 22.32421875 84.51953125 C20.50835883 86.54965193 18.85154037 87.89830069 16.09887695 88.22705078 C15.40238037 88.21657715 14.70588379 88.20610352 13.98828125 88.1953125 C12.85229492 88.18564453 12.85229492 88.18564453 11.69335938 88.17578125 C10.51483398 88.15064453 10.51483398 88.15064453 9.3125 88.125 C8.51521484 88.11597656 7.71792969 88.10695313 6.89648438 88.09765625 C4.930861 88.07411585 2.96539225 88.03824547 1 88 C2.44580966 84.68386118 4.24829792 82.50814272 6.80712891 79.96582031 C7.58778717 79.18531311 8.36844543 78.40480591 9.17276001 77.60064697 C10.01551483 76.76821472 10.85826965 75.93578247 11.7265625 75.078125 C12.58937836 74.21813904 13.45219421 73.35815308 14.34115601 72.47210693 C17.09778029 69.7266769 19.86127799 66.9882831 22.625 64.25 C24.49524857 62.38978217 26.36504589 60.52911054 28.234375 58.66796875 C32.8176936 54.10670055 37.40667478 49.55118989 42 45 C37.44999581 39.532533 32.60495503 34.50103312 27.5390625 29.51171875 C25.91783972 27.90312482 24.29674974 26.29439704 22.67578125 24.68554688 C20.13614575 22.1708679 17.59493191 19.65782266 15.05126953 17.1472168 C12.58455468 14.71052617 10.12394787 12.26780084 7.6640625 9.82421875 C6.89542877 9.06904465 6.12679504 8.31387054 5.33486938 7.53581238 C4.63348846 6.83781021 3.93210754 6.13980804 3.20947266 5.4206543 C2.58803375 4.80667282 1.96659485 4.19269135 1.32632446 3.56010437 C0 2 0 2 0 0 Z " fill="#4126F9" transform="translate(84,27)"/>
<path d="M0 0 C7.42526785 6.24325213 14.30561049 12.97599161 21.19995117 19.79492188 C22.69802136 21.27125248 24.20233141 22.74127667 25.71264648 24.20507812 C27.90504657 26.33075402 30.07727086 28.47530558 32.24609375 30.625 C32.92409531 31.2751709 33.60209686 31.9253418 34.30064392 32.59521484 C34.91871414 33.21605957 35.53678436 33.8369043 36.17358398 34.4765625 C36.72094711 35.01361816 37.26831024 35.55067383 37.83226013 36.10400391 C39.54612811 38.88671868 39.41738984 40.79499356 39 44 C37.54632568 46.18865967 37.54632568 46.18865967 35.48339844 48.22949219 C34.71549988 49.00339294 33.94760132 49.7772937 33.15643311 50.574646 C32.31590393 51.39048157 31.47537476 52.20631714 30.609375 53.046875 C29.75321594 53.89928772 28.89705688 54.75170044 28.01495361 55.62994385 C26.20265158 57.42880524 24.38317027 59.22045824 22.55712891 61.00537109 C19.76072405 63.73951472 16.98618168 66.49438009 14.21484375 69.25390625 C12.45175929 70.9986482 10.68747572 72.74217944 8.921875 74.484375 C8.08944275 75.3083075 7.2570105 76.13223999 6.39935303 76.98114014 C5.61884583 77.74243225 4.83833862 78.50372437 4.03417969 79.28808594 C3.35023132 79.9583783 2.66628296 80.62867065 1.96160889 81.3192749 C-1.31644261 84.12794051 -4.0687671 85.29945205 -8.375 85.375 C-9.10460937 85.40335937 -9.83421875 85.43171875 -10.5859375 85.4609375 C-16.98280264 84.23952959 -21.51366738 78.73960711 -25.875 74.25 C-26.76445313 73.34701172 -26.76445313 73.34701172 -27.671875 72.42578125 C-29.11923124 70.95508055 -30.5602763 69.4781733 -32 68 C-29 68 -29 68 -27.203125 69.5390625 C-26.55859375 70.22742188 -25.9140625 70.91578125 -25.25 71.625 C-24.54101562 72.34945312 -23.83203125 73.07390625 -23.1015625 73.8203125 C-21.81273077 75.15705619 -20.53410047 76.50384609 -19.2734375 77.8671875 C-16.06534843 81.04486814 -13.62322435 82.45739017 -9.0625 82.8125 C-3.04900273 82.44693786 0.04612645 79.23755955 4 75 C4.886875 74.154375 5.77375 73.30875 6.6875 72.4375 C9.07225986 69.99023515 9.07225986 69.99023515 11.3125 67.125 C15.2074845 62.35763727 20.04495463 58.53003551 24.875 54.75 C27.20937224 52.99973763 27.20937224 52.99973763 29 50 C29.66 50 30.32 50 31 50 C31 49.34 31 48.68 31 48 C31.66 48 32.32 48 33 48 C33.33 47.01 33.66 46.02 34 45 C34.66 45 35.32 45 36 45 C36.59534428 42.31410782 36.59534428 42.31410782 36 39 C33.96451854 36.2107219 31.47081794 33.95904489 28.9375 31.625 C27.53995992 30.28693659 26.14410005 28.94711588 24.75 27.60546875 C24.11835937 27.01145264 23.48671875 26.41743652 22.8359375 25.80541992 C20.92693103 23.92814561 19.18125686 21.96858044 17.4375 19.9375 C15.20690465 17.34209948 12.92149905 14.87509385 10.4765625 12.48046875 C9.83533447 11.8469751 9.19410645 11.21348145 8.53344727 10.56079102 C7.23388308 9.28440746 5.92976983 8.01263685 4.62084961 6.74584961 C3.72765015 5.87005249 3.72765015 5.87005249 2.81640625 4.9765625 C2.27443604 4.45143066 1.73246582 3.92629883 1.17407227 3.38525391 C0 2 0 2 0 0 Z " fill="#271BD7" transform="translate(70,30)"/>
<path d="M0 0 C2.67009837 -0.19115477 5.32628503 -0.32850496 8 -0.4375 C8.74378906 -0.49615234 9.48757812 -0.55480469 10.25390625 -0.61523438 C14.873923 -0.75584358 17.37179875 -0.09528228 20.79711914 3.07568359 C21.48991974 3.71161942 22.18272034 4.34755524 22.89651489 5.00276184 C23.59066498 5.66185043 24.28481506 6.32093903 25 7 C25.63783417 7.60192673 26.27566833 8.20385345 26.93283081 8.82402039 C31.07957828 12.78701572 35.14789195 16.83137312 39.22045898 20.87036133 C40.70572818 22.33894762 42.19635862 23.80213037 43.69213867 25.26000977 C45.86817156 27.38138638 48.0273893 29.51865101 50.18359375 31.66015625 C50.85329697 32.30719009 51.52300018 32.95422394 52.21299744 33.62086487 C55.81501451 37.23958076 57.92160595 39.63441754 58 45 C57.3183939 47.58343012 56.20635561 49.58728877 55 52 C54 49 54 49 54.875 45.3125 C55.20929839 42.76006724 55.31280436 41.50332607 53.94018555 39.29467773 C53.4069165 38.72177002 52.87364746 38.1488623 52.32421875 37.55859375 C51.68258789 36.86596436 51.04095703 36.17333496 50.37988281 35.4597168 C49.20184082 34.24215698 49.20184082 34.24215698 48 33 C47.53613892 32.51987457 47.07227783 32.03974915 46.59436035 31.54507446 C43.32318519 28.16986923 40.01691516 24.83114671 36.69311523 21.5078125 C34.93247899 19.7449727 33.18002691 17.97425412 31.42773438 16.203125 C30.29476076 15.06721946 29.16131352 13.93178608 28.02734375 12.796875 C27.51155258 12.27389832 26.99576141 11.75092163 26.46434021 11.21209717 C21.61649818 6.39423551 17.20714323 2.5954704 10.125 2.25 C8.67480469 2.16492188 8.67480469 2.16492188 7.1953125 2.078125 C6.10863281 2.03945313 6.10863281 2.03945313 5 2 C6.83333333 5.16666667 6.83333333 5.16666667 10 7 C11.19050011 8.40980276 12.38119197 9.8203558 13.5234375 11.26953125 C15.55254105 13.64755472 17.78315059 15.79593066 20 18 C27.66666667 25.66666667 35.33333333 33.33333333 43 41 C42.67 41.99 42.34 42.98 42 44 C36.5180263 38.56429698 31.04140718 33.12324952 25.57164001 27.67526436 C23.03183728 25.14591408 20.49020135 22.61846392 17.94433594 20.09521484 C15.01988356 17.19658113 12.10349429 14.28995498 9.1875 11.3828125 C8.26880127 10.47443634 7.35010254 9.56606018 6.40356445 8.63015747 C5.56269287 7.78943695 4.72182129 6.94871643 3.85546875 6.08251953 C3.10934326 5.34083527 2.36321777 4.599151 1.59448242 3.83499146 C0 2 0 2 0 0 Z " fill="#2F1FDA" transform="translate(84,27)"/>
<path d="M0 0 C0.77601562 -0.00515625 1.55203125 -0.0103125 2.3515625 -0.015625 C4.375 0.25 4.375 0.25 6.375 2.25 C4.395 3.24 4.395 3.24 2.375 4.25 C1.88 3.755 1.88 3.755 1.375 3.25 C-1.32512347 2.57649231 -1.32512347 2.57649231 -4.625 3.25 C-9.47653558 6.61385768 -13.4721233 11.0850685 -17.625 15.25 C-18.74983142 16.37516855 -19.87484267 17.50015735 -21 18.625 C-21.59296875 19.21796875 -22.1859375 19.8109375 -22.796875 20.421875 C-28.25 25.875 -28.25 25.875 -29.99584961 27.62060547 C-31.43661909 29.06159086 -32.87657406 30.50339056 -34.31640625 31.9453125 C-35.76695053 33.39340239 -37.23127796 34.82794722 -38.71484375 36.2421875 C-40.60291504 38.16618403 -42.21459632 39.94881504 -43.625 42.25 C-43.18076374 46.76640194 -42.03283834 49.30686689 -38.625 52.25 C-38.625 52.91 -38.625 53.57 -38.625 54.25 C-37.965 54.25 -37.305 54.25 -36.625 54.25 C-36.625 54.91 -36.625 55.57 -36.625 56.25 C-35.76648438 56.63285156 -35.76648438 56.63285156 -34.890625 57.0234375 C-32.38326267 58.38087159 -30.4919544 59.96974104 -28.375 61.875 C-27.66859375 62.50664063 -26.9621875 63.13828125 -26.234375 63.7890625 C-25.70328125 64.27117187 -25.1721875 64.75328125 -24.625 65.25 C-24.955 66.24 -25.285 67.23 -25.625 68.25 C-30.24901974 64.46671112 -34.63505955 60.45472945 -38.9375 56.3125 C-39.46504883 55.82297852 -39.99259766 55.33345703 -40.53613281 54.82910156 C-44.12705468 51.31689752 -45.95285744 48.39160335 -46.625 43.25 C-44.46253999 37.29571896 -40.22703779 33.43368123 -35.81640625 29.078125 C-35.05327621 28.31449646 -34.29014618 27.55086792 -33.50389099 26.76409912 C-31.89445379 25.15699573 -30.28133876 23.5535681 -28.66479492 21.95361328 C-26.19076935 19.50323809 -23.73039019 17.03975631 -21.27148438 14.57421875 C-19.70391649 13.01222612 -18.13558291 11.45100145 -16.56640625 9.890625 C-15.83088028 9.15418762 -15.09535431 8.41775024 -14.33753967 7.65899658 C-13.64679855 6.97778748 -12.95605743 6.29657837 -12.24438477 5.59472656 C-11.64054459 4.99549377 -11.03670441 4.39626099 -10.41456604 3.77886963 C-7.08714884 0.93617649 -4.34939409 -0.02909294 0 0 Z " fill="#1083EC" transform="translate(61.625,26.75)"/>
<path d="M0 0 C3.02977429 1.35231187 5.08472613 2.85480543 7.390625 5.23046875 C8.01396729 5.8654126 8.63730957 6.50035645 9.27954102 7.15454102 C9.92979248 7.82541748 10.58004395 8.49629395 11.25 9.1875 C15.81316339 13.82965071 20.37102157 18.36685301 25.34765625 22.5703125 C28.04528788 24.90443349 30.50986742 27.4476141 33 30 C31.61370756 33.12324544 30.00488429 35.24190707 27.5859375 37.64453125 C26.90660156 38.32193359 26.22726563 38.99933594 25.52734375 39.69726562 C24.46193359 40.74430664 24.46193359 40.74430664 23.375 41.8125 C22.68792969 42.49892578 22.00085938 43.18535156 21.29296875 43.89257812 C17.25180152 47.89962669 13.10806524 51.72744848 8.77294922 55.41479492 C6.97776671 57.01987892 5.37812378 58.72753181 3.75 60.5 C2.8425 61.325 1.935 62.15 1 63 C-2.64787631 62.77512459 -4.41513639 60.93772321 -6.890625 58.40234375 C-7.95410156 57.32436523 -7.95410156 57.32436523 -9.0390625 56.22460938 C-9.76867188 55.46986328 -10.49828125 54.71511719 -11.25 53.9375 C-11.99507812 53.17888672 -12.74015625 52.42027344 -13.5078125 51.63867188 C-15.34546694 49.76567793 -17.17575724 47.88604389 -19 46 C-18.67 45.34 -18.34 44.68 -18 44 C-12.39 49.61 -6.78 55.22 -1 61 C3.4543919 57.1819498 7.60776397 53.51309612 11.71484375 49.3828125 C12.21544815 48.88079315 12.71605255 48.3787738 13.23182678 47.86154175 C14.80278598 46.28506329 16.37019877 44.70511427 17.9375 43.125 C19.01343727 42.04403726 20.08960731 40.96330617 21.16601562 39.8828125 C23.78003292 37.25787359 26.39088596 34.62981372 29 32 C27.35113455 27.71255941 24.11409446 24.87934952 20.8984375 21.73828125 C20.30197418 21.1470195 19.70551086 20.55575775 19.0909729 19.94657898 C17.19034491 18.06373059 15.28314825 16.18772428 13.375 14.3125 C11.46061383 12.42568828 9.54768941 10.5374514 7.63760376 8.64628601 C6.44954361 7.47053168 5.25882178 6.29745998 4.0652771 5.12727356 C2.69143924 3.77023468 1.34283661 2.38772289 0 1 C0 0.67 0 0.34 0 0 Z " fill="#1B30CA" transform="translate(62,40)"/>
<path d="M0 0 C0 3 0 3 -1.39793396 4.75196838 C-2.05221878 5.39657516 -2.7065036 6.04118195 -3.38061523 6.70532227 C-4.11815536 7.43940811 -4.8556955 8.17349396 -5.61558533 8.92982483 C-6.42177811 9.7173967 -7.22797089 10.50496857 -8.05859375 11.31640625 C-8.87747574 12.12867172 -9.69635773 12.94093719 -10.54005432 13.77781677 C-13.16557363 16.37986255 -15.80101226 18.97157231 -18.4375 21.5625 C-21.06868732 24.15867836 -23.69775589 26.75695252 -26.32423401 29.3578949 C-27.96151452 30.97814041 -29.6018589 32.59529654 -31.24546814 34.2091217 C-31.98616043 34.94005539 -32.72685272 35.67098907 -33.48999023 36.42407227 C-34.14507065 37.06788345 -34.80015106 37.71169464 -35.4750824 38.37501526 C-37.08892461 39.93956137 -37.08892461 39.93956137 -38 42 C-32.46464079 42.73742559 -27.52195858 42.83543852 -22.91210938 39.48046875 C-18.25671778 35.3280142 -14.06465582 30.72585113 -10 26 C-9.01 26.33 -8.02 26.66 -7 27 C-7.58007812 27.49628906 -8.16015625 27.99257812 -8.7578125 28.50390625 C-13.10429294 32.2837663 -17.12194958 36.0422173 -20.7109375 40.5546875 C-22.51252514 42.5746494 -24.16980996 43.90085055 -26.90112305 44.22705078 C-27.59761963 44.21657715 -28.29411621 44.20610352 -29.01171875 44.1953125 C-29.76904297 44.18886719 -30.52636719 44.18242188 -31.30664062 44.17578125 C-32.09232422 44.15902344 -32.87800781 44.14226562 -33.6875 44.125 C-34.48478516 44.11597656 -35.28207031 44.10695313 -36.10351562 44.09765625 C-38.069139 44.07411585 -40.03460775 44.03824547 -42 44 C-40.54131246 40.64000982 -38.69131052 38.44796894 -36.10107422 35.87402344 C-34.90005569 34.67323151 -34.90005569 34.67323151 -33.67477417 33.44818115 C-32.81014557 32.59387512 -31.94551697 31.73956909 -31.0546875 30.859375 C-30.1696756 29.97719299 -29.2846637 29.09501099 -28.37283325 28.18609619 C-26.02549869 25.84805457 -23.67393215 23.51444126 -21.32019043 21.18286133 C-18.91686073 18.80003474 -16.51922233 16.41149652 -14.12109375 14.0234375 C-9.41928533 9.34368138 -4.71181336 4.66968133 0 0 Z " fill="#2C13C9" transform="translate(127,71)"/>
<path d="M0 0 C2.09765625 0.4284668 2.09765625 0.4284668 4 1 C3.56171875 1.36681885 3.1234375 1.7336377 2.671875 2.11157227 C-3.88784601 7.71716719 -9.92922433 13.81668528 -16 19.9375 C-17.07137887 21.01390654 -18.14299182 22.09008014 -19.21484375 23.16601562 C-21.81259638 25.77466745 -24.40717962 28.38644471 -27 31 C-25.30413874 34.63303084 -23.26199512 36.94549046 -20.375 39.75 C-19.55773438 40.54921875 -18.74046875 41.3484375 -17.8984375 42.171875 C-17.27195312 42.77515625 -16.64546875 43.3784375 -16 44 C-16.33 44.66 -16.66 45.32 -17 46 C-21.85743929 41.83295817 -26.53019508 37.58155004 -31 33 C-29.4975457 29.4567789 -27.43747735 27.22928476 -24.6875 24.5625 C-23.88441406 23.77746094 -23.08132812 22.99242188 -22.25390625 22.18359375 C-21.51011719 21.46300781 -20.76632813 20.74242188 -20 20 C-19.0393207 19.04401839 -18.08040715 18.08625061 -17.125 17.125 C-15.8748264 15.8748264 -14.60979801 14.63870186 -13.3125 13.4375 C-11.87964725 12.01649729 -11.87964725 12.01649729 -11.0625 9.9375 C-9.70795269 7.46744314 -8.50492714 7.25246357 -6 6 C-4.46280886 4.42561876 -2.99896036 2.81129368 -1.5625 1.14453125 C-1.046875 0.76683594 -0.53125 0.38914063 0 0 Z " fill="#0F75EA" transform="translate(59,39)"/>
<path d="M0 0 C4.98592875 4.17777765 9.66704284 8.53127277 14.24609375 13.1484375 C14.90207047 13.80582916 15.55804718 14.46322083 16.23390198 15.14053345 C18.30415268 17.21632862 20.37087651 19.29559427 22.4375 21.375 C23.85067862 22.7932008 25.26408794 24.21117176 26.67773438 25.62890625 C30.12116065 29.08328777 33.56143099 32.5407837 37 36 C36.01 36.33 35.02 36.66 34 37 C21.17918235 24.35269718 21.17918235 24.35269718 16.03125 18.24609375 C12.40851621 14.24018619 8.50158162 10.50164861 4.62133789 6.74633789 C4.02571045 6.16231201 3.43008301 5.57828613 2.81640625 4.9765625 C2.27443604 4.45143066 1.73246582 3.92629883 1.17407227 3.38525391 C0 2 0 2 0 0 Z " fill="#1824C7" transform="translate(70,30)"/>
<path d="M0 0 C0.77601562 -0.00515625 1.55203125 -0.0103125 2.3515625 -0.015625 C4.375 0.25 4.375 0.25 6.375 2.25 C4.395 3.24 4.395 3.24 2.375 4.25 C2.045 3.92 1.715 3.59 1.375 3.25 C-1.32512347 2.57649231 -1.32512347 2.57649231 -4.625 3.25 C-7.57571652 5.29590696 -10.08253347 7.72335795 -12.625 10.25 C-13.511875 11.11625 -14.39875 11.9825 -15.3125 12.875 C-16.075625 13.65875 -16.83875 14.4425 -17.625 15.25 C-19.29166667 16.91666667 -20.95833333 18.58333333 -22.625 20.25 C-23.615 19.92 -24.605 19.59 -25.625 19.25 C-22.88325163 16.45012585 -20.13023657 13.66159698 -17.375 10.875 C-16.59769531 10.0809375 -15.82039063 9.286875 -15.01953125 8.46875 C-14.26542969 7.70820312 -13.51132812 6.94765625 -12.734375 6.1640625 C-11.69748535 5.1114624 -11.69748535 5.1114624 -10.63964844 4.03759766 C-7.22913122 1.01144556 -4.53584329 -0.03034009 0 0 Z " fill="#0F74F0" transform="translate(61.625,26.75)"/>
<path d="M0 0 C4.28500208 0.46288603 6.57085413 3.18638443 9.421875 6.12890625 C9.92672424 6.63800034 10.43157349 7.14709442 10.95172119 7.6716156 C12.55833979 9.2949912 14.15419822 10.928497 15.75 12.5625 C16.83914984 13.6667005 17.92898605 14.77022445 19.01953125 15.87304688 C21.6877076 18.5742529 24.34628291 21.28459063 27 24 C26.67 24.99 26.34 25.98 26 27 C22.29403669 23.3186774 18.59131014 19.63414174 14.89160156 15.9465332 C13.63142871 14.69140234 12.37036163 13.43716865 11.10839844 12.18383789 C9.29909566 10.3866066 7.49298864 8.58621813 5.6875 6.78515625 C5.11878174 6.22159927 4.55006348 5.6580423 3.96411133 5.07740784 C2.62362787 3.73711889 1.30889557 2.3711538 0 1 C0 0.67 0 0.34 0 0 Z " fill="#3A22DB" transform="translate(100,44)"/>
<path d="M0 0 C0.99 0.33 1.98 0.66 3 1 C2.41992188 1.49628906 1.83984375 1.99257812 1.2421875 2.50390625 C-3.10429294 6.2837663 -7.12194958 10.0422173 -10.7109375 14.5546875 C-12.51252514 16.5746494 -14.16980996 17.90085055 -16.90112305 18.22705078 C-17.59761963 18.21657715 -18.29411621 18.20610352 -19.01171875 18.1953125 C-19.76904297 18.18886719 -20.52636719 18.18242188 -21.30664062 18.17578125 C-22.09232422 18.15902344 -22.87800781 18.14226562 -23.6875 18.125 C-24.48478516 18.11597656 -25.28207031 18.10695313 -26.10351562 18.09765625 C-28.069139 18.07411585 -30.03460775 18.03824547 -32 18 C-31.505 16.515 -31.505 16.515 -31 15 C-30.01902344 15.17402344 -29.03804688 15.34804687 -28.02734375 15.52734375 C-22.56859924 16.18108561 -17.53438333 16.67312584 -12.77001953 13.52783203 C-8.04552166 9.46597446 -3.93276801 4.82191556 0 0 Z " fill="#3923C7" transform="translate(117,97)"/>
<path d="M0 0 C3.03708705 1.34981647 5.03741247 2.83916739 7.3125 5.25 C8.22515625 6.17232422 8.22515625 6.17232422 9.15625 7.11328125 C10.33937349 8.32397753 11.50760848 9.54951013 12.65625 10.79296875 C16.04329124 14.15604507 18.28389938 15.38012399 23.125 15.4375 C26.47536925 15.22810192 29.7482934 14.86712176 33 14 C29.98104869 17.15617637 28.13206265 18.17090274 23.75 18.3125 C23.00234375 18.34988281 22.2546875 18.38726562 21.484375 18.42578125 C15.07479078 17.32728333 10.49380042 11.77519997 6.125 7.3125 C5.53203125 6.71888672 4.9390625 6.12527344 4.328125 5.51367188 C0 1.14067 0 1.14067 0 0 Z " fill="#1D34D5" transform="translate(38,97)"/>
<path d="M0 0 C0.33 0.99 0.66 1.98 1 3 C-4.28 8.28 -9.56 13.56 -15 19 C-15.99 18.67 -16.98 18.34 -18 18 C-14.13873411 13.37587002 -10.22975372 9.1547632 -5.578125 5.3203125 C-3.59656406 3.66247191 -1.78976522 1.86135583 0 0 Z " fill="#2527E4" transform="translate(87,92)"/>
<path d="M0 0 C0.33 0.99 0.66 1.98 1 3 C-4.28 8.28 -9.56 13.56 -15 19 C-15.66 18.34 -16.32 17.68 -17 17 C-11.39 11.39 -5.78 5.78 0 0 Z " fill="#2625C9" transform="translate(92,71)"/>
<path d="M0 0 C15.14887892 -0.92017937 15.14887892 -0.92017937 19.6875 1.3359375 C21.5625 3 21.5625 3 24 6 C23.67 6.66 23.34 7.32 23 8 C22.56171875 7.57847656 22.1234375 7.15695313 21.671875 6.72265625 C15.78034662 1.6334295 10.65004866 1.02550016 3 1 C3 1.66 3 2.32 3 3 C2.01 2.67 1.02 2.34 0 2 C0 1.34 0 0.68 0 0 Z " fill="#2230E0" transform="translate(84,27)"/>
<path d="M0 0 C0.66 0 1.32 0 2 0 C2 0.66 2 1.32 2 2 C2.85851562 2.38285156 2.85851562 2.38285156 3.734375 2.7734375 C6.24173733 4.13087159 8.1330456 5.71974104 10.25 7.625 C10.95640625 8.25664063 11.6628125 8.88828125 12.390625 9.5390625 C12.92171875 10.02117187 13.4528125 10.50328125 14 11 C13.67 11.99 13.34 12.98 13 14 C8.445213 10.19985226 4.04720741 6.34334454 0 2 C0 1.34 0 0.68 0 0 Z " fill="#0F78F1" transform="translate(23,81)"/>
<path d="M0 0 C4.56030824 3.80475422 8.85089392 7.74969621 13 12 C12.67 12.66 12.34 13.32 12 14 C2.0855615 5.43315508 2.0855615 5.43315508 0 3 C0 2.01 0 1.02 0 0 Z " fill="#1465DA" transform="translate(30,71)"/>
<path d="M0 0 C4.10447392 0.51776621 5.95699523 2.64627444 8.75 5.5625 C9.94882813 6.80193359 9.94882813 6.80193359 11.171875 8.06640625 C11.77515625 8.70449219 12.3784375 9.34257813 13 10 C12.67 10.99 12.34 11.98 12 13 C9.99698146 11.0238076 7.99750133 9.04425526 6 7.0625 C5.42765625 6.49853516 4.8553125 5.93457031 4.265625 5.35351562 C2.82474495 3.92121224 1.41012857 2.46258871 0 1 C0 0.67 0 0.34 0 0 Z " fill="#342DDD" transform="translate(100,44)"/>
<path d="M0 0 C0.7940625 -0.01417969 1.588125 -0.02835938 2.40625 -0.04296875 C4.5 0.1875 4.5 0.1875 6.5 2.1875 C4.52 3.1775 4.52 3.1775 2.5 4.1875 C2.17 3.8575 1.84 3.5275 1.5 3.1875 C-2.96074638 2.87628514 -6.3369263 3.60156716 -10.5 5.1875 C-6.91339154 1.48133793 -5.17653238 0.04201731 0 0 Z " fill="#1161E2" transform="translate(61.5,26.8125)"/>
<path d="M0 0 C0.57492188 0.23976562 1.14984375 0.47953125 1.7421875 0.7265625 C-2.87315469 4.79134357 -7.51367062 8.81264545 -12.2578125 12.7265625 C-10.92376531 8.80693932 -9.28427574 6.29682141 -6.3828125 3.3515625 C-5.70476563 2.64257812 -5.02671875 1.93359375 -4.328125 1.203125 C-2.2578125 -0.2734375 -2.2578125 -0.2734375 0 0 Z " fill="#0E61E3" transform="translate(61.2578125,39.2734375)"/>
<path d="M0 0 C0.66 0 1.32 0 2 0 C2.0825 1.2375 2.165 2.475 2.25 3.75 C2.63475459 6.98882964 2.90024003 7.87907883 5.0625 10.5 C5.701875 10.995 6.34125 11.49 7 12 C6.67 12.99 6.34 13.98 6 15 C-0.86914661 7.7107221 -0.86914661 7.7107221 -1 3 C-0.67 2.01 -0.34 1.02 0 0 Z " fill="#1689E7" transform="translate(16,67)"/>
<path d="M0 0 C3.09709467 1.37195861 5.15870525 2.93792501 7.5 5.375 C8.09941406 5.99246094 8.69882812 6.60992187 9.31640625 7.24609375 C10.14978516 8.11427734 10.14978516 8.11427734 11 9 C11.804375 9.804375 12.60875 10.60875 13.4375 11.4375 C13.953125 11.953125 14.46875 12.46875 15 13 C10.5703014 12.57812394 8.16454106 9.53693648 5.25 6.5 C4.74339844 5.98824219 4.23679687 5.47648437 3.71484375 4.94921875 C0 1.15427055 0 1.15427055 0 0 Z " fill="#1748D6" transform="translate(38,97)"/>
<path d="M0 0 C3.96 0 7.92 0 12 0 C12 0.33 12 0.66 12 1 C8.7 1 5.4 1 2 1 C3.83333333 4.16666667 3.83333333 4.16666667 7 6 C4.6875 6.25 4.6875 6.25 2 6 C0.1875 4 0.1875 4 -1 2 C-0.67 1.34 -0.34 0.68 0 0 Z " fill="#1B3BE1" transform="translate(87,28)"/>
<path d="M0 0 C4.95 0 9.9 0 15 0 C15 0.33 15 0.66 15 1 C11.04 1 7.08 1 3 1 C3 1.66 3 2.32 3 3 C2.01 2.67 1.02 2.34 0 2 C0 1.34 0 0.68 0 0 Z " fill="#1125C5" transform="translate(84,27)"/>
<path d="M0 0 C1.32 0.33 2.64 0.66 4 1 C4 2.98 4 4.96 4 7 C3.01 7 2.02 7 1 7 C1.020625 6.21625 1.04125 5.4325 1.0625 4.625 C1.18684063 2.01885039 1.18684063 2.01885039 0 0 Z " fill="#301EDC" transform="translate(105,67)"/>
<path d="M0 0 C2.475 0.99 2.475 0.99 5 2 C5 3.32 5 4.64 5 6 C3.2925002 4.71937515 1.62626404 3.38232443 0 2 C0 1.34 0 0.68 0 0 Z " fill="#0E6CEB" transform="translate(31,89)"/>
</svg>
